<?xml version="1.0" standalone="no"?>
<!DOCTYPE svg PUBLIC "-//W3C//DTD SVG 20010904//EN"
 "http://www.w3.org/TR/2001/REC-SVG-20010904/DTD/svg10.dtd">
<svg version="1.0" xmlns="http://www.w3.org/2000/svg"
 width="942.000000pt" height="942.000000pt" viewBox="0 0 942.000000 942.000000"
 preserveAspectRatio="xMidYMid meet">
<metadata>
Created by potrace 1.11, written by Peter Selinger 2001-2013
</metadata>
<g transform="translate(0.000000,942.000000) scale(0.100000,-0.100000)"
fill="#000000" stroke="none">
<path d="M4987 8434 c-1 -1 -63 -4 -137 -8 -133 -6 -178 -10 -249 -21 -132
-21 -242 -41 -269 -49 -9 -3 -28 -7 -42 -10 -14 -2 -59 -14 -99 -26 -41 -12
-81 -23 -90 -25 -76 -15 -349 -124 -501 -200 -196 -98 -310 -169 -310 -194 0
-6 -4 -11 -8 -11 -9 0 -30 -59 -36 -100 -1 -13 1 -40 6 -60 5 -19 10 -40 11
-47 7 -29 70 -92 113 -113 64 -29 132 -24 211 17 32 16 105 55 163 85 164 85
321 147 555 218 43 13 253 58 300 64 22 3 49 7 60 9 57 13 213 22 400 22 256
0 312 -5 560 -50 337 -62 714 -217 1039 -429 196 -128 430 -335 589 -521 33
-38 63 -72 66 -75 16 -14 91 -121 91 -130 0 -6 5 -8 10 -5 6 3 10 -1 10 -9 0
-9 8 -25 18 -35 29 -33 42 -50 42 -56 0 -4 14 -26 30 -50 17 -24 30 -48 30
-54 0 -6 3 -11 8 -11 4 0 15 -17 25 -37 10 -21 38 -76 62 -123 25 -47 50 -100
56 -117 6 -18 15 -33 21 -33 6 0 8 -7 4 -15 -3 -8 1 -20 8 -27 7 -7 11 -19 8
-26 -2 -6 2 -12 9 -12 7 0 9 -3 6 -7 -4 -3 -3 -11 1 -17 5 -6 15 -31 22 -56 7
-25 17 -50 22 -56 5 -7 10 -20 12 -31 2 -10 10 -38 17 -63 7 -25 13 -48 15
-52 1 -5 3 -11 4 -15 2 -5 4 -12 5 -18 1 -5 5 -17 8 -25 3 -8 8 -26 10 -40 3
-14 8 -36 11 -50 3 -14 9 -38 13 -55 3 -16 7 -37 9 -45 1 -8 5 -35 9 -60 4
-25 9 -56 10 -70 2 -14 4 -27 5 -30 1 -3 3 -9 5 -15 1 -5 3 -12 4 -15 2 -3 4
-14 6 -25 3 -19 105 -235 115 -245 3 -3 6 -10 7 -16 1 -7 16 -35 33 -63 16
-29 30 -54 30 -57 0 -3 99 -205 220 -447 121 -243 220 -444 220 -447 0 -3
-126 -6 -279 -6 -315 -1 -344 -6 -402 -71 -65 -75 -62 -27 -63 -915 -1 -758
-2 -808 -19 -825 -16 -17 -92 -18 -1439 -18 -1067 0 -1425 3 -1437 11 -14 11
-16 61 -16 446 0 432 0 433 -23 480 -25 50 -79 100 -122 113 -25 7 -160 83
-170 94 -3 4 -27 23 -55 43 -60 44 -237 228 -219 228 3 0 -7 11 -22 25 -15 14
-23 25 -18 25 5 0 4 4 -1 8 -6 4 -16 19 -24 34 -8 15 -21 36 -30 45 -9 10 -23
31 -31 48 -33 66 -96 111 -168 120 -52 6 -132 -12 -149 -34 -7 -9 -13 -12 -13
-8 0 17 -54 -50 -73 -93 -22 -49 -25 -123 -6 -146 6 -8 9 -14 5 -14 -4 0 3
-19 15 -42 32 -62 122 -198 131 -198 4 0 8 -6 8 -12 0 -7 11 -26 25 -43 149
-176 246 -266 394 -367 l98 -67 0 -484 0 -483 24 -48 c29 -58 79 -102 134
-118 29 -8 493 -11 1625 -11 1452 0 1590 1 1649 17 171 45 312 183 362 356 10
35 13 207 14 750 l1 705 352 1 c403 1 413 3 481 80 49 56 80 171 51 189 -5 3
-10 13 -10 22 0 17 -620 1264 -633 1274 -5 3 -8 9 -7 13 0 3 -31 70 -69 149
-64 131 -77 170 -86 269 -2 14 -5 30 -8 35 -3 5 -8 26 -11 48 -4 22 -15 74
-26 115 -11 41 -22 82 -24 90 -27 103 -51 181 -66 215 -5 11 -16 42 -25 70 -9
27 -21 55 -27 62 -6 7 -7 13 -2 13 4 0 3 5 -4 12 -7 7 -12 20 -12 30 0 10 -4
18 -10 18 -5 0 -10 11 -10 24 0 13 -5 26 -10 28 -6 2 -12 12 -14 23 -6 27
-131 269 -167 323 -16 24 -29 47 -29 53 0 5 -4 9 -10 9 -5 0 -10 5 -10 11 0
15 -139 216 -177 257 -7 7 -13 16 -13 20 0 4 -12 21 -28 37 -15 17 -54 62 -87
100 -77 90 -272 285 -286 285 -6 0 -7 5 -4 10 3 6 0 10 -9 10 -8 0 -16 4 -18
9 -4 12 -141 125 -197 164 -25 17 -48 33 -51 37 -12 14 -111 80 -120 80 -6 0
-10 5 -10 11 0 5 -13 15 -30 20 -16 6 -30 15 -30 20 0 5 -4 9 -10 9 -5 0 -39
18 -74 39 -91 56 -366 192 -416 205 -3 1 -16 8 -30 16 -14 7 -25 12 -25 11 0
-1 -13 3 -30 9 -16 7 -34 13 -40 14 -5 2 -18 6 -27 10 -9 4 -22 9 -30 10 -7 2
-20 6 -28 9 -38 14 -179 57 -220 67 -25 6 -54 13 -65 16 -44 11 -189 40 -247
48 -21 3 -53 8 -70 11 -77 11 -118 16 -203 21 -89 5 -325 11 -328 8z"/>
<path d="M2111 7689 c-32 -13 -444 -426 -437 -438 4 -5 3 -12 -2 -15 -5 -3 -7
-20 -4 -37 4 -26 44 -72 206 -234 111 -111 215 -209 231 -217 31 -16 87 -14
93 3 2 5 7 9 12 9 5 0 99 90 209 200 207 208 224 232 206 290 -8 25 -420 440
-438 441 -7 0 -21 2 -32 4 -11 2 -31 -1 -44 -6z"/>
<path d="M3250 7348 c-19 -7 -296 -268 -284 -268 1 0 -49 -51 -113 -114 -63
-63 -112 -119 -109 -124 3 -6 2 -13 -3 -16 -10 -7 -5 -50 8 -73 6 -11 360
-370 449 -454 80 -77 115 -68 257 69 122 119 175 157 309 224 10 6 55 21 100
36 72 23 98 25 236 26 149 0 159 -1 250 -33 162 -55 259 -119 410 -272 42 -42
85 -81 97 -87 34 -18 78 -14 109 10 41 32 484 475 485 485 0 4 3 19 5 33 3 14
2 36 -1 49 -3 13 -116 133 -250 267 -304 303 -296 300 -430 170 -130 -127
-173 -166 -183 -166 -5 0 -21 -11 -36 -25 -14 -13 -26 -22 -26 -19 0 3 -13 -4
-30 -16 -16 -12 -30 -18 -30 -14 0 3 -6 1 -13 -5 -14 -11 -84 -38 -122 -47
-11 -3 -24 -6 -30 -8 -47 -14 -65 -17 -100 -21 -69 -8 -188 -6 -240 4 -91 18
-100 21 -150 38 -63 22 -172 78 -219 113 -11 8 -69 62 -129 120 -60 58 -116
109 -125 115 -23 13 -62 14 -92 3z"/>
<path d="M1984 6291 c-16 -10 -36 -27 -45 -37 -9 -11 -81 -83 -160 -161 -79
-78 -151 -150 -160 -160 -9 -10 -45 -46 -80 -80 -35 -35 -69 -68 -75 -75 -6
-7 -24 -25 -40 -40 -91 -85 -106 -105 -111 -146 -3 -28 0 -48 11 -64 9 -13
159 -166 333 -340 330 -330 342 -340 406 -324 12 3 100 82 194 175 97 96 205
192 247 220 42 29 78 52 81 52 2 0 24 8 47 19 118 52 192 64 408 64 239 1 278
-3 385 -39 162 -54 229 -102 452 -323 90 -90 174 -164 188 -168 66 -16 75 -9
419 335 319 320 328 329 333 373 5 44 4 47 -55 109 -33 35 -182 185 -331 334
-187 186 -281 273 -305 281 -19 7 -36 10 -39 8 -2 -3 -14 -7 -26 -9 -12 -2
-91 -73 -176 -157 -157 -158 -215 -212 -215 -203 0 3 -9 -3 -19 -12 -37 -33
-51 -44 -51 -37 0 4 -8 0 -17 -8 -26 -23 -157 -75 -238 -94 -51 -13 -119 -17
-255 -18 -253 -1 -340 12 -474 73 -109 49 -185 109 -361 283 -93 92 -175 168
-182 168 -21 0 -27 1 -44 10 -10 6 -26 2 -45 -9z"/>
<path d="M523 5915 c-34 -24 -276 -268 -296 -299 -12 -17 -16 -37 -13 -51 3
-13 74 -92 156 -175 175 -176 192 -184 255 -129 63 56 246 242 269 274 38 54
31 68 -107 206 -200 200 -214 209 -264 174z"/>
<path d="M3311 4950 c-22 -21 -43 -35 -46 -32 -3 3 -5 0 -5 -6 0 -14 -222
-237 -232 -234 -5 1 -8 -2 -8 -7 0 -5 -29 -39 -65 -76 -54 -54 -65 -71 -65
-99 0 -43 3 -46 226 -270 217 -217 228 -226 261 -226 33 0 60 21 176 134 131
128 251 196 388 221 66 13 219 12 292 0 156 -28 259 -87 415 -239 106 -104
135 -122 177 -112 38 10 461 436 468 472 8 43 -13 71 -210 266 -224 223 -240
238 -255 239 -55 5 -74 -5 -147 -78 -119 -119 -181 -169 -256 -206 -76 -38
-171 -66 -250 -74 -27 -2 -56 -6 -62 -8 -7 -3 -13 -1 -13 3 0 4 -23 6 -50 6
-67 -2 -176 19 -242 47 -112 48 -152 78 -315 237 -41 39 -80 72 -86 73 -7 0
-22 2 -34 3 -14 2 -37 -11 -62 -34z"/>
<path d="M1955 4643 c-42 -10 -103 -58 -130 -101 -22 -35 -29 -58 -31 -106 -1
-34 2 -65 6 -71 5 -5 9 -14 9 -20 0 -5 5 -31 11 -56 6 -26 12 -53 13 -60 2 -8
6 -20 10 -26 5 -7 6 -13 3 -13 -3 0 6 -33 19 -72 14 -40 30 -89 36 -108 18
-57 70 -193 85 -221 7 -14 11 -29 7 -33 -3 -3 -1 -6 6 -6 7 0 9 -4 6 -10 -3
-5 -1 -10 4 -10 6 0 10 -3 9 -7 -4 -15 161 -337 181 -353 3 -3 15 -22 26 -42
11 -21 23 -38 27 -38 5 0 8 -6 8 -13 0 -7 7 -22 15 -32 8 -11 43 -58 77 -105
33 -47 89 -118 122 -159 l61 -74 1 -956 c0 -526 4 -973 8 -994 5 -23 25 -56
50 -83 78 -86 -108 -79 2066 -79 1594 1 1933 3 1973 14 33 10 62 28 92 59 25
25 43 48 40 50 -3 3 1 12 8 20 17 21 22 442 5 497 -18 57 -91 128 -150 144
-49 14 -131 9 -152 -8 -7 -6 -15 -9 -18 -6 -7 8 -76 -61 -92 -93 -18 -36 -28
-88 -30 -168 l-1 -59 -1660 -1 c-913 0 -1667 3 -1676 7 -10 5 -15 18 -14 34 2
14 -1 25 -7 25 -6 0 -7 5 -2 13 11 14 11 1574 0 1584 -3 3 -1 12 5 20 9 10 8
13 0 13 -7 0 -10 4 -7 9 14 22 -47 179 -85 220 -11 11 -19 24 -19 28 0 4 -14
23 -30 41 -16 19 -39 47 -52 64 -13 16 -28 35 -33 41 -25 28 -145 206 -145
215 0 6 -4 12 -9 14 -7 2 -131 214 -131 223 0 2 -17 38 -37 82 -21 43 -38 81
-39 86 -1 4 -3 9 -4 12 -1 3 -3 8 -5 13 -1 4 -6 18 -12 32 -20 45 -51 125 -51
130 0 3 -5 18 -11 33 -6 16 -9 32 -6 37 3 5 1 10 -5 12 -5 1 -11 12 -13 23 -2
11 -8 29 -12 39 -5 10 -9 28 -10 40 -1 12 -5 28 -8 36 -3 8 -9 29 -13 45 -4
17 -8 35 -10 40 -1 6 -4 20 -6 32 -5 30 -58 110 -77 118 -9 3 -31 14 -50 24
-32 17 -105 24 -146 14z"/>
</g>
</svg>
